#N canvas -12 0 872 604 10;
#X text 40 20 Receive OSC from Tiny Shanzai Rogue (port 9001);
#X obj 45 75 oscparse;
#X obj 40 120 list trim;
#X obj 40 160 route /player /level /monsters /event /message;
#X text 210 140 Route by OSC address;
#X obj 40 249 unpack f f f;
#X text 40 229 /player: x y hp;
#X floatatom 40 279 5 0 0 0 x - - 0;
#X floatatom 80 279 5 0 0 0 y - - 0;
#X floatatom 120 279 5 0 0 0 hp - - 0;
#X obj 313 242 float;
#X floatatom 313 272 5 0 0 0 level - - 0;
#X text 313 222 /level;
#X obj 435 240 float;
#X floatatom 435 270 5 0 0 0 monsters - - 0;
#X text 435 220 /monsters;
#X obj 569 239 symbol;
#X obj 569 269 print EVENT;
#X text 569 219 /event (string);
#X obj 729 234 symbol;
#X obj 729 264 print MESSAGE;
#X text 729 214 /message (last log line);
#X obj 739 464 loadbang;
#X msg 739 494 \; pd dsp 1;
#X text 799 464 Auto-enable audio;
#X obj 40 40 netreceive -u -b 9001;
#X obj 346 85 print;
#X connect 1 0 2 0;
#X connect 1 0 26 0;
#X connect 2 0 3 0;
#X connect 3 0 5 0;
#X connect 3 1 10 0;
#X connect 3 2 13 0;
#X connect 3 3 16 0;
#X connect 3 4 19 0;
#X connect 5 0 7 0;
#X connect 5 1 8 0;
#X connect 5 2 9 0;
#X connect 10 0 11 0;
#X connect 13 0 14 0;
#X connect 16 0 17 0;
#X connect 19 0 20 0;
#X connect 22 0 23 0;
#X connect 25 0 1 0;
